<?xml version="1.0" encoding="utf-8" ?>
<svg baseProfile="tiny" height="100%" version="1.2" width="100%" xmlns="http://www.w3.org/2000/svg" xmlns:ev="http://www.w3.org/2001/xml-events" xmlns:xlink="http://www.w3.org/1999/xlink"><defs /><path d="M 533 2 C 533.5 2.5, 533.5 2.5, 534 3" fill="none" stroke="black" /><path d="M 534 3 C 533.5 3.5, 533.5 3.5, 533 4" fill="none" stroke="black" /><path d="M 533 4 C 532.5 4.0, 532.5 4.0, 532 4" fill="none" stroke="black" /><path d="M 532 4 C 531.5 3.5, 531.5 3.5, 531 3" fill="none" stroke="black" /><path d="M 531 3 C 271.5 3.0, 271.5 3.0, 12 3" fill="none" stroke="black" /><path d="M 12 3 C 11.5 3.5, 11.5 3.5, 11 4" fill="none" stroke="black" /><path d="M 11 4 C 10.0 4.0, 10.0 4.0, 9 4" fill="none" stroke="black" /><path d="M 9 4 C 7.5 5.5, 7.5 5.5, 6 7" fill="none" stroke="black" /><path d="M 6 7 C 6.0 8.0, 6.0 8.0, 6 9" fill="none" stroke="black" /><path d="M 6 9 C 5.5 9.5, 5.5 9.5, 5 10" fill="none" stroke="black" /><path d="M 5 10 C 5.0 442.0, 5.0 442.0, 5 874" fill="none" stroke="black" /><path d="M 5 874 C 5.0 442.0, 5.0 442.0, 5 10" fill="none" stroke="black" /><path d="M 5 10 C 5.5 9.5, 5.5 9.5, 6 9" fill="none" stroke="black" /><path d="M 6 9 C 6.0 8.5, 6.0 8.5, 6 8" fill="none" stroke="black" /><path d="M 6 8 C 8.0 6.0, 8.0 6.0, 10 4" fill="none" stroke="black" /><path d="M 10 4 C 10.5 4.0, 10.5 4.0, 11 4" fill="none" stroke="black" /><path d="M 11 4 C 11.5 3.5, 11.5 3.5, 12 3" fill="none" stroke="black" /><path d="M 12 3 C 271.5 3.0, 271.5 3.0, 531 3" fill="none" stroke="black" /><path d="M 531 3 C 531.5 3.5, 531.5 3.5, 532 4" fill="none" stroke="black" /><path d="M 532 4 C 532.0 4.5, 532.0 4.5, 532 5" fill="none" stroke="black" /><path d="M 532 5 C 531.5 5.5, 531.5 5.5, 531 6" fill="none" stroke="black" /><path d="M 531 6 C 531.0 33.0, 531.0 33.0, 531 60" fill="none" stroke="black" /><path d="M 531 60 C 531.5 60.5, 531.5 60.5, 532 61" fill="none" stroke="black" /><path d="M 532 61 C 532.0 86.5, 532.0 86.5, 532 112" fill="none" stroke="black" /><path d="M 532 112 C 532.5 112.5, 532.5 112.5, 533 113" fill="none" stroke="black" /><path d="M 533 113 C 533.0 133.0, 533.0 133.0, 533 153" fill="none" stroke="black" /><path d="M 533 153 C 533.5 153.5, 533.5 153.5, 534 154" fill="none" stroke="black" /><path d="M 534 154 C 534.0 170.0, 534.0 170.0, 534 186" fill="none" stroke="black" /><path d="M 534 186 C 534.5 186.5, 534.5 186.5, 535 187" fill="none" stroke="black" /><path d="M 535 187 C 535.0 202.0, 535.0 202.0, 535 217" fill="none" stroke="black" /><path d="M 535 217 C 535.5 217.5, 535.5 217.5, 536 218" fill="none" stroke="black" /><path d="M 536 218 C 536.0 231.5, 536.0 231.5, 536 245" fill="none" stroke="black" /><path d="M 536 245 C 536.5 245.5, 536.5 245.5, 537 246" fill="none" stroke="black" /><path d="M 537 246 C 537.0 258.5, 537.0 258.5, 537 271" fill="none" stroke="black" /><path d="M 537 271 C 537.5 271.5, 537.5 271.5, 538 272" fill="none" stroke="black" /><path d="M 538 272 C 538.0 283.0, 538.0 283.0, 538 294" fill="none" stroke="black" /><path d="M 538 294 C 538.5 294.5, 538.5 294.5, 539 295" fill="none" stroke="black" /><path d="M 539 295 C 539.0 306.5, 539.0 306.5, 539 318" fill="none" stroke="black" /><path d="M 539 318 C 539.5 318.5, 539.5 318.5, 540 319" fill="none" stroke="black" /><path d="M 540 319 C 540.0 329.0, 540.0 329.0, 540 339" fill="none" stroke="black" /><path d="M 540 339 C 540.5 339.5, 540.5 339.5, 541 340" fill="none" stroke="black" /><path d="M 541 340 C 541.0 350.0, 541.0 350.0, 541 360" fill="none" stroke="black" /><path d="M 541 360 C 541.5 360.5, 541.5 360.5, 542 361" fill="none" stroke="black" /><path d="M 542 361 C 542.0 370.5, 542.0 370.5, 542 380" fill="none" stroke="black" /><path d="M 542 380 C 542.5 380.5, 542.5 380.5, 543 381" fill="none" stroke="black" /><path d="M 543 381 C 543.0 390.0, 543.0 390.0, 543 399" fill="none" stroke="black" /><path d="M 543 399 C 543.5 399.5, 543.5 399.5, 544 400" fill="none" stroke="black" /><path d="M 544 400 C 544.0 409.0, 544.0 409.0, 544 418" fill="none" stroke="black" /><path d="M 544 418 C 544.5 418.5, 544.5 418.5, 545 419" fill="none" stroke="black" /><path d="M 545 419 C 545.0 427.5, 545.0 427.5, 545 436" fill="none" stroke="black" /><path d="M 545 436 C 545.5 436.5, 545.5 436.5, 546 437" fill="none" stroke="black" /><path d="M 546 437 C 546.0 445.5, 546.0 445.5, 546 454" fill="none" stroke="black" /><path d="M 546 454 C 546.5 454.5, 546.5 454.5, 547 455" fill="none" stroke="black" /><path d="M 547 455 C 547.0 463.0, 547.0 463.0, 547 471" fill="none" stroke="black" /><path d="M 547 471 C 547.5 471.5, 547.5 471.5, 548 472" fill="none" stroke="black" /><path d="M 548 472 C 548.0 480.0, 548.0 480.0, 548 488" fill="none" stroke="black" /><path d="M 548 488 C 548.5 488.5, 548.5 488.5, 549 489" fill="none" stroke="black" /><path d="M 549 489 C 549.0 496.5, 549.0 496.5, 549 504" fill="none" stroke="black" /><path d="M 549 504 C 549.5 504.5, 549.5 504.5, 550 505" fill="none" stroke="black" /><path d="M 550 505 C 550.0 512.5, 550.0 512.5, 550 520" fill="none" stroke="black" /><path d="M 550 520 C 550.5 520.5, 550.5 520.5, 551 521" fill="none" stroke="black" /><path d="M 551 521 C 551.0 528.5, 551.0 528.5, 551 536" fill="none" stroke="black" /><path d="M 551 536 C 551.5 536.5, 551.5 536.5, 552 537" fill="none" stroke="black" /><path d="M 552 537 C 552.0 544.0, 552.0 544.0, 552 551" fill="none" stroke="black" /><path d="M 552 551 C 552.5 551.5, 552.5 551.5, 553 552" fill="none" stroke="black" /><path d="M 553 552 C 553.0 559.5, 553.0 559.5, 553 567" fill="none" stroke="black" /><path d="M 553 567 C 553.5 567.5, 553.5 567.5, 554 568" fill="none" stroke="black" /><path d="M 554 568 C 554.0 575.0, 554.0 575.0, 554 582" fill="none" stroke="black" /><path d="M 554 582 C 554.5 582.5, 554.5 582.5, 555 583" fill="none" stroke="black" /><path d="M 555 583 C 555.0 589.5, 555.0 589.5, 555 596" fill="none" stroke="black" /><path d="M 555 596 C 555.5 596.5, 555.5 596.5, 556 597" fill="none" stroke="black" /><path d="M 556 597 C 556.0 604.0, 556.0 604.0, 556 611" fill="none" stroke="black" /><path d="M 556 611 C 556.5 611.5, 556.5 611.5, 557 612" fill="none" stroke="black" /><path d="M 557 612 C 557.0 619.0, 557.0 619.0, 557 626" fill="none" stroke="black" /><path d="M 557 626 C 557.5 626.5, 557.5 626.5, 558 627" fill="none" stroke="black" /><path d="M 558 627 C 558.0 633.5, 558.0 633.5, 558 640" fill="none" stroke="black" /><path d="M 558 640 C 558.5 640.5, 558.5 640.5, 559 641" fill="none" stroke="black" /><path d="M 559 641 C 559.0 647.5, 559.0 647.5, 559 654" fill="none" stroke="black" /><path d="M 559 654 C 559.5 654.5, 559.5 654.5, 560 655" fill="none" stroke="black" /><path d="M 560 655 C 560.0 661.5, 560.0 661.5, 560 668" fill="none" stroke="black" /><path d="M 560 668 C 560.5 668.5, 560.5 668.5, 561 669" fill="none" stroke="black" /><path d="M 561 669 C 561.0 675.5, 561.0 675.5, 561 682" fill="none" stroke="black" /><path d="M 561 682 C 561.5 682.5, 561.5 682.5, 562 683" fill="none" stroke="black" /><path d="M 562 683 C 562.0 689.0, 562.0 689.0, 562 695" fill="none" stroke="black" /><path d="M 562 695 C 562.5 695.5, 562.5 695.5, 563 696" fill="none" stroke="black" /><path d="M 563 696 C 563.0 702.5, 563.0 702.5, 563 709" fill="none" stroke="black" /><path d="M 563 709 C 563.5 709.5, 563.5 709.5, 564 710" fill="none" stroke="black" /><path d="M 564 710 C 564.0 716.0, 564.0 716.0, 564 722" fill="none" stroke="black" /><path d="M 564 722 C 564.5 722.5, 564.5 722.5, 565 723" fill="none" stroke="black" /><path d="M 565 723 C 565.0 729.0, 565.0 729.0, 565 735" fill="none" stroke="black" /><path d="M 565 735 C 565.5 735.5, 565.5 735.5, 566 736" fill="none" stroke="black" /><path d="M 566 736 C 566.0 742.0, 566.0 742.0, 566 748" fill="none" stroke="black" /><path d="M 566 748 C 566.5 748.5, 566.5 748.5, 567 749" fill="none" stroke="black" /><path d="M 567 749 C 567.0 755.0, 567.0 755.0, 567 761" fill="none" stroke="black" /><path d="M 567 761 C 567.5 761.5, 567.5 761.5, 568 762" fill="none" stroke="black" /><path d="M 568 762 C 568.0 768.0, 568.0 768.0, 568 774" fill="none" stroke="black" /><path d="M 568 774 C 568.5 774.5, 568.5 774.5, 569 775" fill="none" stroke="black" /><path d="M 569 775 C 569.0 781.0, 569.0 781.0, 569 787" fill="none" stroke="black" /><path d="M 569 787 C 569.5 787.5, 569.5 787.5, 570 788" fill="none" stroke="black" /><path d="M 570 788 C 570.0 794.0, 570.0 794.0, 570 800" fill="none" stroke="black" /><path d="M 570 800 C 570.5 800.5, 570.5 800.5, 571 801" fill="none" stroke="black" /><path d="M 571 801 C 571.0 807.0, 571.0 807.0, 571 813" fill="none" stroke="black" /><path d="M 571 813 C 571.5 813.5, 571.5 813.5, 572 814" fill="none" stroke="black" /><path d="M 572 814 C 572.0 819.5, 572.0 819.5, 572 825" fill="none" stroke="black" /><path d="M 572 825 C 572.5 825.5, 572.5 825.5, 573 826" fill="none" stroke="black" /><path d="M 573 826 C 573.0 832.0, 573.0 832.0, 573 838" fill="none" stroke="black" /><path d="M 573 838 C 573.5 838.5, 573.5 838.5, 574 839" fill="none" stroke="black" /><path d="M 574 839 C 574.0 844.5, 574.0 844.5, 574 850" fill="none" stroke="black" /><path d="M 574 850 C 574.5 850.5, 574.5 850.5, 575 851" fill="none" stroke="black" /><path d="M 575 851 C 575.0 854.5, 575.0 854.5, 575 858" fill="none" stroke="black" /><path d="M 575 858 C 576.0 859.0, 576.0 859.0, 577 860" fill="none" stroke="black" /><path d="M 577 860 C 578.0 860.0, 578.0 860.0, 579 860" fill="none" stroke="black" /><path d="M 579 860 C 579.5 860.5, 579.5 860.5, 580 861" fill="none" stroke="black" /><path d="M 580 861 C 584.0 861.0, 584.0 861.0, 588 861" fill="none" stroke="black" /><path d="M 588 861 C 588.5 861.5, 588.5 861.5, 589 862" fill="none" stroke="black" /><path d="M 589 862 C 594.0 862.0, 594.0 862.0, 599 862" fill="none" stroke="black" /><path d="M 599 862 C 599.5 862.5, 599.5 862.5, 600 863" fill="none" stroke="black" /><path d="M 600 863 C 604.5 863.0, 604.5 863.0, 609 863" fill="none" stroke="black" /><path d="M 609 863 C 609.5 863.5, 609.5 863.5, 610 864" fill="none" stroke="black" /><path d="M 610 864 C 615.0 864.0, 615.0 864.0, 620 864" fill="none" stroke="black" /><path d="M 620 864 C 620.5 864.5, 620.5 864.5, 621 865" fill="none" stroke="black" /><path d="M 621 865 C 625.5 865.0, 625.5 865.0, 630 865" fill="none" stroke="black" /><path d="M 630 865 C 630.5 865.5, 630.5 865.5, 631 866" fill="none" stroke="black" /><path d="M 631 866 C 636.0 866.0, 636.0 866.0, 641 866" fill="none" stroke="black" /><path d="M 641 866 C 641.5 866.5, 641.5 866.5, 642 867" fill="none" stroke="black" /><path d="M 642 867 C 646.5 867.0, 646.5 867.0, 651 867" fill="none" stroke="black" /><path d="M 651 867 C 651.5 867.5, 651.5 867.5, 652 868" fill="none" stroke="black" /><path d="M 652 868 C 656.5 868.0, 656.5 868.0, 661 868" fill="none" stroke="black" /><path d="M 661 868 C 661.5 868.5, 661.5 868.5, 662 869" fill="none" stroke="black" /><path d="M 662 869 C 667.0 869.0, 667.0 869.0, 672 869" fill="none" stroke="black" /><path d="M 672 869 C 672.5 869.5, 672.5 869.5, 673 870" fill="none" stroke="black" /><path d="M 673 870 C 677.5 870.0, 677.5 870.0, 682 870" fill="none" stroke="black" /><path d="M 682 870 C 682.5 870.5, 682.5 870.5, 683 871" fill="none" stroke="black" /><path d="M 683 871 C 688.0 871.0, 688.0 871.0, 693 871" fill="none" stroke="black" /><path d="M 693 871 C 693.5 871.5, 693.5 871.5, 694 872" fill="none" stroke="black" /><path d="M 694 872 C 698.5 872.0, 698.5 872.0, 703 872" fill="none" stroke="black" /><path d="M 703 872 C 703.5 872.5, 703.5 872.5, 704 873" fill="none" stroke="black" /><path d="M 704 873 C 709.0 873.0, 709.0 873.0, 714 873" fill="none" stroke="black" /><path d="M 714 873 C 714.5 873.5, 714.5 873.5, 715 874" fill="none" stroke="black" /><path d="M 715 874 C 719.0 874.0, 719.0 874.0, 723 874" fill="none" stroke="black" /><path d="M 723 874 C 719.0 874.0, 719.0 874.0, 715 874" fill="none" stroke="black" /><path d="M 715 874 C 714.5 873.5, 714.5 873.5, 714 873" fill="none" stroke="black" /><path d="M 714 873 C 709.0 873.0, 709.0 873.0, 704 873" fill="none" stroke="black" /><path d="M 704 873 C 703.5 872.5, 703.5 872.5, 703 872" fill="none" stroke="black" /><path d="M 703 872 C 698.5 872.0, 698.5 872.0, 694 872" fill="none" stroke="black" /><path d="M 694 872 C 693.5 871.5, 693.5 871.5, 693 871" fill="none" stroke="black" /><path d="M 693 871 C 688.0 871.0, 688.0 871.0, 683 871" fill="none" stroke="black" /><path d="M 683 871 C 682.5 870.5, 682.5 870.5, 682 870" fill="none" stroke="black" /><path d="M 682 870 C 677.5 870.0, 677.5 870.0, 673 870" fill="none" stroke="black" /><path d="M 673 870 C 672.5 869.5, 672.5 869.5, 672 869" fill="none" stroke="black" /><path d="M 672 869 C 667.0 869.0, 667.0 869.0, 662 869" fill="none" stroke="black" /><path d="M 662 869 C 661.5 868.5, 661.5 868.5, 661 868" fill="none" stroke="black" /><path d="M 661 868 C 656.5 868.0, 656.5 868.0, 652 868" fill="none" stroke="black" /><path d="M 652 868 C 651.5 867.5, 651.5 867.5, 651 867" fill="none" stroke="black" /><path d="M 651 867 C 646.5 867.0, 646.5 867.0, 642 867" fill="none" stroke="black" /><path d="M 642 867 C 641.5 866.5, 641.5 866.5, 641 866" fill="none" stroke="black" /><path d="M 641 866 C 636.0 866.0, 636.0 866.0, 631 866" fill="none" stroke="black" /><path d="M 631 866 C 630.5 865.5, 630.5 865.5, 630 865" fill="none" stroke="black" /><path d="M 630 865 C 625.5 865.0, 625.5 865.0, 621 865" fill="none" stroke="black" /><path d="M 621 865 C 620.5 864.5, 620.5 864.5, 620 864" fill="none" stroke="black" /><path d="M 620 864 C 615.0 864.0, 615.0 864.0, 610 864" fill="none" stroke="black" /><path d="M 610 864 C 609.5 863.5, 609.5 863.5, 609 863" fill="none" stroke="black" /><path d="M 609 863 C 604.5 863.0, 604.5 863.0, 600 863" fill="none" stroke="black" /><path d="M 600 863 C 599.5 862.5, 599.5 862.5, 599 862" fill="none" stroke="black" /><path d="M 599 862 C 594.0 862.0, 594.0 862.0, 589 862" fill="none" stroke="black" /><path d="M 589 862 C 588.5 861.5, 588.5 861.5, 588 861" fill="none" stroke="black" /><path d="M 588 861 C 584.0 861.0, 584.0 861.0, 580 861" fill="none" stroke="black" /><path d="M 580 861 C 579.5 860.5, 579.5 860.5, 579 860" fill="none" stroke="black" /><path d="M 579 860 C 578.5 860.0, 578.5 860.0, 578 860" fill="none" stroke="black" /><path d="M 578 860 C 576.5 858.5, 576.5 858.5, 575 857" fill="none" stroke="black" /><path d="M 575 857 C 575.0 854.0, 575.0 854.0, 575 851" fill="none" stroke="black" /><path d="M 575 851 C 574.5 850.5, 574.5 850.5, 574 850" fill="none" stroke="black" /><path d="M 574 850 C 574.0 844.5, 574.0 844.5, 574 839" fill="none" stroke="black" /><path d="M 574 839 C 573.5 838.5, 573.5 838.5, 573 838" fill="none" stroke="black" /><path d="M 573 838 C 573.0 832.0, 573.0 832.0, 573 826" fill="none" stroke="black" /><path d="M 573 826 C 572.5 825.5, 572.5 825.5, 572 825" fill="none" stroke="black" /><path d="M 572 825 C 572.0 819.5, 572.0 819.5, 572 814" fill="none" stroke="black" /><path d="M 572 814 C 571.5 813.5, 571.5 813.5, 571 813" fill="none" stroke="black" /><path d="M 571 813 C 571.0 807.0, 571.0 807.0, 571 801" fill="none" stroke="black" /><path d="M 571 801 C 570.5 800.5, 570.5 800.5, 570 800" fill="none" stroke="black" /><path d="M 570 800 C 570.0 794.0, 570.0 794.0, 570 788" fill="none" stroke="black" /><path d="M 570 788 C 569.5 787.5, 569.5 787.5, 569 787" fill="none" stroke="black" /><path d="M 569 787 C 569.0 781.0, 569.0 781.0, 569 775" fill="none" stroke="black" /><path d="M 569 775 C 568.5 774.5, 568.5 774.5, 568 774" fill="none" stroke="black" /><path d="M 568 774 C 568.0 768.0, 568.0 768.0, 568 762" fill="none" stroke="black" /><path d="M 568 762 C 567.5 761.5, 567.5 761.5, 567 761" fill="none" stroke="black" /><path d="M 567 761 C 567.0 755.0, 567.0 755.0, 567 749" fill="none" stroke="black" /><path d="M 567 749 C 566.5 748.5, 566.5 748.5, 566 748" fill="none" stroke="black" /><path d="M 566 748 C 566.0 742.0, 566.0 742.0, 566 736" fill="none" stroke="black" /><path d="M 566 736 C 565.5 735.5, 565.5 735.5, 565 735" fill="none" stroke="black" /><path d="M 565 735 C 565.0 729.0, 565.0 729.0, 565 723" fill="none" stroke="black" /><path d="M 565 723 C 564.5 722.5, 564.5 722.5, 564 722" fill="none" stroke="black" /><path d="M 564 722 C 564.0 716.0, 564.0 716.0, 564 710" fill="none" stroke="black" /><path d="M 564 710 C 563.5 709.5, 563.5 709.5, 563 709" fill="none" stroke="black" /><path d="M 563 709 C 563.0 702.5, 563.0 702.5, 563 696" fill="none" stroke="black" /><path d="M 563 696 C 562.5 695.5, 562.5 695.5, 562 695" fill="none" stroke="black" /><path d="M 562 695 C 562.0 689.0, 562.0 689.0, 562 683" fill="none" stroke="black" /><path d="M 562 683 C 561.5 682.5, 561.5 682.5, 561 682" fill="none" stroke="black" /><path d="M 561 682 C 561.0 675.5, 561.0 675.5, 561 669" fill="none" stroke="black" /><path d="M 561 669 C 560.5 668.5, 560.5 668.5, 560 668" fill="none" stroke="black" /><path d="M 560 668 C 560.0 661.5, 560.0 661.5, 560 655" fill="none" stroke="black" /><path d="M 560 655 C 559.5 654.5, 559.5 654.5, 559 654" fill="none" stroke="black" /><path d="M 559 654 C 559.0 647.5, 559.0 647.5, 559 641" fill="none" stroke="black" /><path d="M 559 641 C 558.5 640.5, 558.5 640.5, 558 640" fill="none" stroke="black" /><path d="M 558 640 C 558.0 633.5, 558.0 633.5, 558 627" fill="none" stroke="black" /><path d="M 558 627 C 557.5 626.5, 557.5 626.5, 557 626" fill="none" stroke="black" /><path d="M 557 626 C 557.0 619.0, 557.0 619.0, 557 612" fill="none" stroke="black" /><path d="M 557 612 C 556.5 611.5, 556.5 611.5, 556 611" fill="none" stroke="black" /><path d="M 556 611 C 556.0 604.0, 556.0 604.0, 556 597" fill="none" stroke="black" /><path d="M 556 597 C 555.5 596.5, 555.5 596.5, 555 596" fill="none" stroke="black" /><path d="M 555 596 C 555.0 589.5, 555.0 589.5, 555 583" fill="none" stroke="black" /><path d="M 555 583 C 554.5 582.5, 554.5 582.5, 554 582" fill="none" stroke="black" /><path d="M 554 582 C 554.0 575.0, 554.0 575.0, 554 568" fill="none" stroke="black" /><path d="M 554 568 C 553.5 567.5, 553.5 567.5, 553 567" fill="none" stroke="black" /><path d="M 553 567 C 553.0 559.5, 553.0 559.5, 553 552" fill="none" stroke="black" /><path d="M 553 552 C 552.5 551.5, 552.5 551.5, 552 551" fill="none" stroke="black" /><path d="M 552 551 C 552.0 544.0, 552.0 544.0, 552 537" fill="none" stroke="black" /><path d="M 552 537 C 551.5 536.5, 551.5 536.5, 551 536" fill="none" stroke="black" /><path d="M 551 536 C 551.0 528.5, 551.0 528.5, 551 521" fill="none" stroke="black" /><path d="M 551 521 C 550.5 520.5, 550.5 520.5, 550 520" fill="none" stroke="black" /><path d="M 550 520 C 550.0 512.5, 550.0 512.5, 550 505" fill="none" stroke="black" /><path d="M 550 505 C 549.5 504.5, 549.5 504.5, 549 504" fill="none" stroke="black" /><path d="M 549 504 C 549.0 496.5, 549.0 496.5, 549 489" fill="none" stroke="black" /><path d="M 549 489 C 548.5 488.5, 548.5 488.5, 548 488" fill="none" stroke="black" /><path d="M 548 488 C 548.0 480.0, 548.0 480.0, 548 472" fill="none" stroke="black" /><path d="M 548 472 C 547.5 471.5, 547.5 471.5, 547 471" fill="none" stroke="black" /><path d="M 547 471 C 547.0 463.0, 547.0 463.0, 547 455" fill="none" stroke="black" /><path d="M 547 455 C 546.5 454.5, 546.5 454.5, 546 454" fill="none" stroke="black" /><path d="M 546 454 C 546.0 445.5, 546.0 445.5, 546 437" fill="none" stroke="black" /><path d="M 546 437 C 545.5 436.5, 545.5 436.5, 545 436" fill="none" stroke="black" /><path d="M 545 436 C 545.0 427.5, 545.0 427.5, 545 419" fill="none" stroke="black" /><path d="M 545 419 C 544.5 418.5, 544.5 418.5, 544 418" fill="none" stroke="black" /><path d="M 544 418 C 544.0 409.0, 544.0 409.0, 544 400" fill="none" stroke="black" /><path d="M 544 400 C 543.5 399.5, 543.5 399.5, 543 399" fill="none" stroke="black" /><path d="M 543 399 C 543.0 390.0, 543.0 390.0, 543 381" fill="none" stroke="black" /><path d="M 543 381 C 542.5 380.5, 542.5 380.5, 542 380" fill="none" stroke="black" /><path d="M 542 380 C 542.0 370.5, 542.0 370.5, 542 361" fill="none" stroke="black" /><path d="M 542 361 C 541.5 360.5, 541.5 360.5, 541 360" fill="none" stroke="black" /><path d="M 541 360 C 541.0 350.0, 541.0 350.0, 541 340" fill="none" stroke="black" /><path d="M 541 340 C 540.5 339.5, 540.5 339.5, 540 339" fill="none" stroke="black" /><path d="M 540 339 C 540.0 329.0, 540.0 329.0, 540 319" fill="none" stroke="black" /><path d="M 540 319 C 539.5 318.5, 539.5 318.5, 539 318" fill="none" stroke="black" /><path d="M 539 318 C 539.0 306.5, 539.0 306.5, 539 295" fill="none" stroke="black" /><path d="M 539 295 C 538.5 294.5, 538.5 294.5, 538 294" fill="none" stroke="black" /><path d="M 538 294 C 538.0 283.0, 538.0 283.0, 538 272" fill="none" stroke="black" /><path d="M 538 272 C 537.5 271.5, 537.5 271.5, 537 271" fill="none" stroke="black" /><path d="M 537 271 C 537.0 258.5, 537.0 258.5, 537 246" fill="none" stroke="black" /><path d="M 537 246 C 536.5 245.5, 536.5 245.5, 536 245" fill="none" stroke="black" /><path d="M 536 245 C 536.0 231.5, 536.0 231.5, 536 218" fill="none" stroke="black" /><path d="M 536 218 C 535.5 217.5, 535.5 217.5, 535 217" fill="none" stroke="black" /><path d="M 535 217 C 535.0 202.0, 535.0 202.0, 535 187" fill="none" stroke="black" /><path d="M 535 187 C 534.5 186.5, 534.5 186.5, 534 186" fill="none" stroke="black" /><path d="M 534 186 C 534.0 170.0, 534.0 170.0, 534 154" fill="none" stroke="black" /><path d="M 534 154 C 533.5 153.5, 533.5 153.5, 533 153" fill="none" stroke="black" /><path d="M 533 153 C 533.0 133.0, 533.0 133.0, 533 113" fill="none" stroke="black" /><path d="M 533 113 C 532.5 112.5, 532.5 112.5, 532 112" fill="none" stroke="black" /><path d="M 532 112 C 532.0 86.5, 532.0 86.5, 532 61" fill="none" stroke="black" /><path d="M 532 61 C 531.5 60.5, 531.5 60.5, 531 60" fill="none" stroke="black" /><path d="M 531 60 C 531.0 33.5, 531.0 33.5, 531 7" fill="none" stroke="black" /><path d="M 531 7 C 531.5 6.5, 531.5 6.5, 532 6" fill="none" stroke="black" /><path d="M 532 6 C 532.0 5.5, 532.0 5.5, 532 5" fill="none" stroke="black" /><path d="M 532 5 C 532.5 4.5, 532.5 4.5, 533 4" fill="none" stroke="black" /><path d="M 533 4 C 533.5 4.0, 533.5 4.0, 534 4" fill="none" stroke="black" /><path d="M 534 4 C 534.5 3.5, 534.5 3.5, 535 3" fill="none" stroke="black" /><path d="M 535 3 C 536.5 3.0, 536.5 3.0, 538 3" fill="none" stroke="black" /><path d="M 538 3 C 538.5 3.5, 538.5 3.5, 539 4" fill="none" stroke="black" /><path d="M 539 4 C 784.0 4.0, 784.0 4.0, 1029 4" fill="none" stroke="black" /><path d="M 1029 4 C 1029.5 4.5, 1029.5 4.5, 1030 5" fill="none" stroke="black" /><path d="M 1030 5 C 1187.5 5.0, 1187.5 5.0, 1345 5" fill="none" stroke="black" /><path d="M 1345 5 C 1346.0 6.0, 1346.0 6.0, 1347 7" fill="none" stroke="black" /><path d="M 1347 7 C 1347.0 7.5, 1347.0 7.5, 1347 8" fill="none" stroke="black" /><path d="M 1347 8 C 1347.5 8.5, 1347.5 8.5, 1348 9" fill="none" stroke="black" /><path d="M 1348 9 C 1348.0 10.5, 1348.0 10.5, 1348 12" fill="none" stroke="black" /><path d="M 1348 12 C 1348.5 12.5, 1348.5 12.5, 1349 13" fill="none" stroke="black" /><path d="M 1349 13 C 1349.0 15.0, 1349.0 15.0, 1349 17" fill="none" stroke="black" /><path d="M 1349 17 C 1349.5 17.5, 1349.5 17.5, 1350 18" fill="none" stroke="black" /><path d="M 1350 18 C 1350.0 20.5, 1350.0 20.5, 1350 23" fill="none" stroke="black" /><path d="M 1350 23 C 1350.5 23.5, 1350.5 23.5, 1351 24" fill="none" stroke="black" /><path d="M 1351 24 C 1351.0 26.0, 1351.0 26.0, 1351 28" fill="none" stroke="black" /><path d="M 1351 28 C 1351.5 28.5, 1351.5 28.5, 1352 29" fill="none" stroke="black" /><path d="M 1352 29 C 1352.0 31.0, 1352.0 31.0, 1352 33" fill="none" stroke="black" /><path d="M 1352 33 C 1352.5 33.5, 1352.5 33.5, 1353 34" fill="none" stroke="black" /><path d="M 1353 34 C 1353.0 36.0, 1353.0 36.0, 1353 38" fill="none" stroke="black" /><path d="M 1353 38 C 1353.5 38.5, 1353.5 38.5, 1354 39" fill="none" stroke="black" /><path d="M 1354 39 C 1354.0 41.0, 1354.0 41.0, 1354 43" fill="none" stroke="black" /><path d="M 1354 43 C 1354.5 43.5, 1354.5 43.5, 1355 44" fill="none" stroke="black" /><path d="M 1355 44 C 1355.0 46.5, 1355.0 46.5, 1355 49" fill="none" stroke="black" /><path d="M 1355 49 C 1355.5 49.5, 1355.5 49.5, 1356 50" fill="none" stroke="black" /><path d="M 1356 50 C 1356.0 52.0, 1356.0 52.0, 1356 54" fill="none" stroke="black" /><path d="M 1356 54 C 1356.5 54.5, 1356.5 54.5, 1357 55" fill="none" stroke="black" /><path d="M 1357 55 C 1357.0 57.5, 1357.0 57.5, 1357 60" fill="none" stroke="black" /><path d="M 1357 60 C 1357.5 60.5, 1357.5 60.5, 1358 61" fill="none" stroke="black" /><path d="M 1358 61 C 1358.0 63.5, 1358.0 63.5, 1358 66" fill="none" stroke="black" /><path d="M 1358 66 C 1358.5 66.5, 1358.5 66.5, 1359 67" fill="none" stroke="black" /><path d="M 1359 67 C 1359.0 69.5, 1359.0 69.5, 1359 72" fill="none" stroke="black" /><path d="M 1359 72 C 1359.5 72.5, 1359.5 72.5, 1360 73" fill="none" stroke="black" /><path d="M 1360 73 C 1360.0 76.0, 1360.0 76.0, 1360 79" fill="none" stroke="black" /><path d="M 1360 79 C 1360.5 79.5, 1360.5 79.5, 1361 80" fill="none" stroke="black" /><path d="M 1361 80 C 1361.0 82.5, 1361.0 82.5, 1361 85" fill="none" stroke="black" /><path d="M 1361 85 C 1361.5 85.5, 1361.5 85.5, 1362 86" fill="none" stroke="black" /><path d="M 1362 86 C 1362.0 88.5, 1362.0 88.5, 1362 91" fill="none" stroke="black" /><path d="M 1362 91 C 1362.5 91.5, 1362.5 91.5, 1363 92" fill="none" stroke="black" /><path d="M 1363 92 C 1363.0 94.5, 1363.0 94.5, 1363 97" fill="none" stroke="black" /><path d="M 1363 97 C 1363.5 97.5, 1363.5 97.5, 1364 98" fill="none" stroke="black" /><path d="M 1364 98 C 1364.0 101.0, 1364.0 101.0, 1364 104" fill="none" stroke="black" /><path d="M 1364 104 C 1364.5 104.5, 1364.5 104.5, 1365 105" fill="none" stroke="black" /><path d="M 1365 105 C 1365.0 108.0, 1365.0 108.0, 1365 111" fill="none" stroke="black" /><path d="M 1365 111 C 1365.5 111.5, 1365.5 111.5, 1366 112" fill="none" stroke="black" /><path d="M 1366 112 C 1366.0 115.0, 1366.0 115.0, 1366 118" fill="none" stroke="black" /><path d="M 1366 118 C 1366.5 118.5, 1366.5 118.5, 1367 119" fill="none" stroke="black" /><path d="M 1367 119 C 1367.0 122.5, 1367.0 122.5, 1367 126" fill="none" stroke="black" /><path d="M 1367 126 C 1367.5 126.5, 1367.5 126.5, 1368 127" fill="none" stroke="black" /><path d="M 1368 127 C 1368.0 130.0, 1368.0 130.0, 1368 133" fill="none" stroke="black" /><path d="M 1368 133 C 1368.5 133.5, 1368.5 133.5, 1369 134" fill="none" stroke="black" /><path d="M 1369 134 C 1369.0 137.0, 1369.0 137.0, 1369 140" fill="none" stroke="black" /><path d="M 1369 140 C 1369.5 140.5, 1369.5 140.5, 1370 141" fill="none" stroke="black" /><path d="M 1370 141 C 1370.0 144.5, 1370.0 144.5, 1370 148" fill="none" stroke="black" /><path d="M 1370 148 C 1370.5 148.5, 1370.5 148.5, 1371 149" fill="none" stroke="black" /><path d="M 1371 149 C 1371.0 153.0, 1371.0 153.0, 1371 157" fill="none" stroke="black" /><path d="M 1371 157 C 1371.5 157.5, 1371.5 157.5, 1372 158" fill="none" stroke="black" /><path d="M 1372 158 C 1372.0 162.0, 1372.0 162.0, 1372 166" fill="none" stroke="black" /><path d="M 1372 166 C 1372.5 166.5, 1372.5 166.5, 1373 167" fill="none" stroke="black" /><path d="M 1373 167 C 1373.0 171.0, 1373.0 171.0, 1373 175" fill="none" stroke="black" /><path d="M 1373 175 C 1373.5 175.5, 1373.5 175.5, 1374 176" fill="none" stroke="black" /><path d="M 1374 176 C 1374.0 180.0, 1374.0 180.0, 1374 184" fill="none" stroke="black" /><path d="M 1374 184 C 1374.5 184.5, 1374.5 184.5, 1375 185" fill="none" stroke="black" /><path d="M 1375 185 C 1375.0 189.0, 1375.0 189.0, 1375 193" fill="none" stroke="black" /><path d="M 1375 193 C 1375.5 193.5, 1375.5 193.5, 1376 194" fill="none" stroke="black" /><path d="M 1376 194 C 1376.0 198.5, 1376.0 198.5, 1376 203" fill="none" stroke="black" /><path d="M 1376 203 C 1376.5 203.5, 1376.5 203.5, 1377 204" fill="none" stroke="black" /><path d="M 1377 204 C 1377.0 209.0, 1377.0 209.0, 1377 214" fill="none" stroke="black" /><path d="M 1377 214 C 1377.5 214.5, 1377.5 214.5, 1378 215" fill="none" stroke="black" /><path d="M 1378 215 C 1378.0 220.5, 1378.0 220.5, 1378 226" fill="none" stroke="black" /><path d="M 1378 226 C 1378.5 226.5, 1378.5 226.5, 1379 227" fill="none" stroke="black" /><path d="M 1379 227 C 1379.0 232.0, 1379.0 232.0, 1379 237" fill="none" stroke="black" /><path d="M 1379 237 C 1379.5 237.5, 1379.5 237.5, 1380 238" fill="none" stroke="black" /><path d="M 1380 238 C 1380.0 243.0, 1380.0 243.0, 1380 248" fill="none" stroke="black" /><path d="M 1380 248 C 1380.5 248.5, 1380.5 248.5, 1381 249" fill="none" stroke="black" /><path d="M 1381 249 C 1381.0 256.5, 1381.0 256.5, 1381 264" fill="none" stroke="black" /><path d="M 1381 264 C 1381.5 264.5, 1381.5 264.5, 1382 265" fill="none" stroke="black" /><path d="M 1382 265 C 1382.0 272.0, 1382.0 272.0, 1382 279" fill="none" stroke="black" /><path d="M 1382 279 C 1382.5 279.5, 1382.5 279.5, 1383 280" fill="none" stroke="black" /><path d="M 1383 280 C 1383.0 287.0, 1383.0 287.0, 1383 294" fill="none" stroke="black" /><path d="M 1383 294 C 1383.5 294.5, 1383.5 294.5, 1384 295" fill="none" stroke="black" /><path d="M 1384 295 C 1384.0 304.5, 1384.0 304.5, 1384 314" fill="none" stroke="black" /><path d="M 1384 314 C 1384.5 314.5, 1384.5 314.5, 1385 315" fill="none" stroke="black" /><path d="M 1385 315 C 1385.0 325.5, 1385.0 325.5, 1385 336" fill="none" stroke="black" /><path d="M 1385 336 C 1385.5 336.5, 1385.5 336.5, 1386 337" fill="none" stroke="black" /><path d="M 1386 337 C 1386.0 350.0, 1386.0 350.0, 1386 363" fill="none" stroke="black" /><path d="M 1386 363 C 1386.5 363.5, 1386.5 363.5, 1387 364" fill="none" stroke="black" /><path d="M 1387 364 C 1387.0 383.0, 1387.0 383.0, 1387 402" fill="none" stroke="black" /><path d="M 1387 402 C 1387.5 402.5, 1387.5 402.5, 1388 403" fill="none" stroke="black" /><path d="M 1388 403 C 1388.0 466.0, 1388.0 466.0, 1388 529" fill="none" stroke="black" /><path d="M 1388 529 C 1387.5 529.5, 1387.5 529.5, 1387 530" fill="none" stroke="black" /><path d="M 1387 530 C 1387.0 554.0, 1387.0 554.0, 1387 578" fill="none" stroke="black" /><path d="M 1387 578 C 1386.5 578.5, 1386.5 578.5, 1386 579" fill="none" stroke="black" /><path d="M 1386 579 C 1386.0 596.0, 1386.0 596.0, 1386 613" fill="none" stroke="black" /><path d="M 1386 613 C 1385.5 613.5, 1385.5 613.5, 1385 614" fill="none" stroke="black" /><path d="M 1385 614 C 1385.0 628.5, 1385.0 628.5, 1385 643" fill="none" stroke="black" /><path d="M 1385 643 C 1384.5 643.5, 1384.5 643.5, 1384 644" fill="none" stroke="black" /><path d="M 1384 644 C 1384.0 657.0, 1384.0 657.0, 1384 670" fill="none" stroke="black" /><path d="M 1384 670 C 1383.5 670.5, 1383.5 670.5, 1383 671" fill="none" stroke="black" /><path d="M 1383 671 C 1383.0 682.5, 1383.0 682.5, 1383 694" fill="none" stroke="black" /><path d="M 1383 694 C 1382.5 694.5, 1382.5 694.5, 1382 695" fill="none" stroke="black" /><path d="M 1382 695 C 1382.0 706.5, 1382.0 706.5, 1382 718" fill="none" stroke="black" /><path d="M 1382 718 C 1381.5 718.5, 1381.5 718.5, 1381 719" fill="none" stroke="black" /><path d="M 1381 719 C 1381.0 730.0, 1381.0 730.0, 1381 741" fill="none" stroke="black" /><path d="M 1381 741 C 1380.5 741.5, 1380.5 741.5, 1380 742" fill="none" stroke="black" /><path d="M 1380 742 C 1380.0 753.0, 1380.0 753.0, 1380 764" fill="none" stroke="black" /><path d="M 1380 764 C 1379.5 764.5, 1379.5 764.5, 1379 765" fill="none" stroke="black" /><path d="M 1379 765 C 1379.0 775.5, 1379.0 775.5, 1379 786" fill="none" stroke="black" /><path d="M 1379 786 C 1378.5 786.5, 1378.5 786.5, 1378 787" fill="none" stroke="black" /><path d="M 1378 787 C 1378.0 797.5, 1378.0 797.5, 1378 808" fill="none" stroke="black" /><path d="M 1378 808 C 1377.5 808.5, 1377.5 808.5, 1377 809" fill="none" stroke="black" /><path d="M 1377 809 C 1377.0 810.5, 1377.0 810.5, 1377 812" fill="none" stroke="black" /><path d="M 1377 812 C 1375.5 813.5, 1375.5 813.5, 1374 815" fill="none" stroke="black" /><path d="M 1374 815 C 1373.5 815.0, 1373.5 815.0, 1373 815" fill="none" stroke="black" /><path d="M 1373 815 C 1372.5 815.5, 1372.5 815.5, 1372 816" fill="none" stroke="black" /><path d="M 1372 816 C 1370.0 816.0, 1370.0 816.0, 1368 816" fill="none" stroke="black" /><path d="M 1368 816 C 1367.5 816.5, 1367.5 816.5, 1367 817" fill="none" stroke="black" /><path d="M 1367 817 C 1365.0 817.0, 1365.0 817.0, 1363 817" fill="none" stroke="black" /><path d="M 1363 817 C 1362.5 817.5, 1362.5 817.5, 1362 818" fill="none" stroke="black" /><path d="M 1362 818 C 1360.0 818.0, 1360.0 818.0, 1358 818" fill="none" stroke="black" /><path d="M 1358 818 C 1357.5 818.5, 1357.5 818.5, 1357 819" fill="none" stroke="black" /><path d="M 1357 819 C 1355.5 819.0, 1355.5 819.0, 1354 819" fill="none" stroke="black" /><path d="M 1354 819 C 1353.5 819.5, 1353.5 819.5, 1353 820" fill="none" stroke="black" /><path d="M 1353 820 C 1351.0 820.0, 1351.0 820.0, 1349 820" fill="none" stroke="black" /><path d="M 1349 820 C 1348.5 820.5, 1348.5 820.5, 1348 821" fill="none" stroke="black" /><path d="M 1348 821 C 1345.5 821.0, 1345.5 821.0, 1343 821" fill="none" stroke="black" /><path d="M 1343 821 C 1342.5 821.5, 1342.5 821.5, 1342 822" fill="none" stroke="black" /><path d="M 1342 822 C 1340.0 822.0, 1340.0 822.0, 1338 822" fill="none" stroke="black" /><path d="M 1338 822 C 1337.5 822.5, 1337.5 822.5, 1337 823" fill="none" stroke="black" /><path d="M 1337 823 C 1335.0 823.0, 1335.0 823.0, 1333 823" fill="none" stroke="black" /><path d="M 1333 823 C 1332.5 823.5, 1332.5 823.5, 1332 824" fill="none" stroke="black" /><path d="M 1332 824 C 1330.0 824.0, 1330.0 824.0, 1328 824" fill="none" stroke="black" /><path d="M 1328 824 C 1327.5 824.5, 1327.5 824.5, 1327 825" fill="none" stroke="black" /><path d="M 1327 825 C 1325.0 825.0, 1325.0 825.0, 1323 825" fill="none" stroke="black" /><path d="M 1323 825 C 1322.5 825.5, 1322.5 825.5, 1322 826" fill="none" stroke="black" /><path d="M 1322 826 C 1319.5 826.0, 1319.5 826.0, 1317 826" fill="none" stroke="black" /><path d="M 1317 826 C 1316.5 826.5, 1316.5 826.5, 1316 827" fill="none" stroke="black" /><path d="M 1316 827 C 1314.0 827.0, 1314.0 827.0, 1312 827" fill="none" stroke="black" /><path d="M 1312 827 C 1311.5 827.5, 1311.5 827.5, 1311 828" fill="none" stroke="black" /><path d="M 1311 828 C 1308.5 828.0, 1308.5 828.0, 1306 828" fill="none" stroke="black" /><path d="M 1306 828 C 1305.5 828.5, 1305.5 828.5, 1305 829" fill="none" stroke="black" /><path d="M 1305 829 C 1303.0 829.0, 1303.0 829.0, 1301 829" fill="none" stroke="black" /><path d="M 1301 829 C 1300.5 829.5, 1300.5 829.5, 1300 830" fill="none" stroke="black" /><path d="M 1300 830 C 1297.5 830.0, 1297.5 830.0, 1295 830" fill="none" stroke="black" /><path d="M 1295 830 C 1294.5 830.5, 1294.5 830.5, 1294 831" fill="none" stroke="black" /><path d="M 1294 831 C 1291.5 831.0, 1291.5 831.0, 1289 831" fill="none" stroke="black" /><path d="M 1289 831 C 1288.5 831.5, 1288.5 831.5, 1288 832" fill="none" stroke="black" /><path d="M 1288 832 C 1285.5 832.0, 1285.5 832.0, 1283 832" fill="none" stroke="black" /><path d="M 1283 832 C 1282.5 832.5, 1282.5 832.5, 1282 833" fill="none" stroke="black" /><path d="M 1282 833 C 1280.0 833.0, 1280.0 833.0, 1278 833" fill="none" stroke="black" /><path d="M 1278 833 C 1277.5 833.5, 1277.5 833.5, 1277 834" fill="none" stroke="black" /><path d="M 1277 834 C 1274.0 834.0, 1274.0 834.0, 1271 834" fill="none" stroke="black" /><path d="M 1271 834 C 1270.5 834.5, 1270.5 834.5, 1270 835" fill="none" stroke="black" /><path d="M 1270 835 C 1267.5 835.0, 1267.5 835.0, 1265 835" fill="none" stroke="black" /><path d="M 1265 835 C 1264.5 835.5, 1264.5 835.5, 1264 836" fill="none" stroke="black" /><path d="M 1264 836 C 1261.5 836.0, 1261.5 836.0, 1259 836" fill="none" stroke="black" /><path d="M 1259 836 C 1258.5 836.5, 1258.5 836.5, 1258 837" fill="none" stroke="black" /><path d="M 1258 837 C 1255.5 837.0, 1255.5 837.0, 1253 837" fill="none" stroke="black" /><path d="M 1253 837 C 1252.5 837.5, 1252.5 837.5, 1252 838" fill="none" stroke="black" /><path d="M 1252 838 C 1249.5 838.0, 1249.5 838.0, 1247 838" fill="none" stroke="black" /><path d="M 1247 838 C 1246.5 838.5, 1246.5 838.5, 1246 839" fill="none" stroke="black" /><path d="M 1246 839 C 1243.0 839.0, 1243.0 839.0, 1240 839" fill="none" stroke="black" /><path d="M 1240 839 C 1239.5 839.5, 1239.5 839.5, 1239 840" fill="none" stroke="black" /><path d="M 1239 840 C 1236.5 840.0, 1236.5 840.0, 1234 840" fill="none" stroke="black" /><path d="M 1234 840 C 1233.5 840.5, 1233.5 840.5, 1233 841" fill="none" stroke="black" /><path d="M 1233 841 C 1230.0 841.0, 1230.0 841.0, 1227 841" fill="none" stroke="black" /><path d="M 1227 841 C 1226.5 841.5, 1226.5 841.5, 1226 842" fill="none" stroke="black" /><path d="M 1226 842 C 1223.0 842.0, 1223.0 842.0, 1220 842" fill="none" stroke="black" /><path d="M 1220 842 C 1219.5 842.5, 1219.5 842.5, 1219 843" fill="none" stroke="black" /><path d="M 1219 843 C 1216.5 843.0, 1216.5 843.0, 1214 843" fill="none" stroke="black" /><path d="M 1214 843 C 1213.5 843.5, 1213.5 843.5, 1213 844" fill="none" stroke="black" /><path d="M 1213 844 C 1210.0 844.0, 1210.0 844.0, 1207 844" fill="none" stroke="black" /><path d="M 1207 844 C 1206.5 844.5, 1206.5 844.5, 1206 845" fill="none" stroke="black" /><path d="M 1206 845 C 1203.0 845.0, 1203.0 845.0, 1200 845" fill="none" stroke="black" /><path d="M 1200 845 C 1199.5 845.5, 1199.5 845.5, 1199 846" fill="none" stroke="black" /><path d="M 1199 846 C 1196.0 846.0, 1196.0 846.0, 1193 846" fill="none" stroke="black" /><path d="M 1193 846 C 1192.5 846.5, 1192.5 846.5, 1192 847" fill="none" stroke="black" /><path d="M 1192 847 C 1188.5 847.0, 1188.5 847.0, 1185 847" fill="none" stroke="black" /><path d="M 1185 847 C 1184.5 847.5, 1184.5 847.5, 1184 848" fill="none" stroke="black" /><path d="M 1184 848 C 1181.0 848.0, 1181.0 848.0, 1178 848" fill="none" stroke="black" /><path d="M 1178 848 C 1177.5 848.5, 1177.5 848.5, 1177 849" fill="none" stroke="black" /><path d="M 1177 849 C 1174.0 849.0, 1174.0 849.0, 1171 849" fill="none" stroke="black" /><path d="M 1171 849 C 1170.5 849.5, 1170.5 849.5, 1170 850" fill="none" stroke="black" /><path d="M 1170 850 C 1166.5 850.0, 1166.5 850.0, 1163 850" fill="none" stroke="black" /><path d="M 1163 850 C 1162.5 850.5, 1162.5 850.5, 1162 851" fill="none" stroke="black" /><path d="M 1162 851 C 1159.0 851.0, 1159.0 851.0, 1156 851" fill="none" stroke="black" /><path d="M 1156 851 C 1155.5 851.5, 1155.5 851.5, 1155 852" fill="none" stroke="black" /><path d="M 1155 852 C 1151.5 852.0, 1151.5 852.0, 1148 852" fill="none" stroke="black" /><path d="M 1148 852 C 1147.5 852.5, 1147.5 852.5, 1147 853" fill="none" stroke="black" /><path d="M 1147 853 C 1143.5 853.0, 1143.5 853.0, 1140 853" fill="none" stroke="black" /><path d="M 1140 853 C 1139.5 853.5, 1139.5 853.5, 1139 854" fill="none" stroke="black" /><path d="M 1139 854 C 1135.5 854.0, 1135.5 854.0, 1132 854" fill="none" stroke="black" /><path d="M 1132 854 C 1131.5 854.5, 1131.5 854.5, 1131 855" fill="none" stroke="black" /><path d="M 1131 855 C 1127.5 855.0, 1127.5 855.0, 1124 855" fill="none" stroke="black" /><path d="M 1124 855 C 1123.5 855.5, 1123.5 855.5, 1123 856" fill="none" stroke="black" /><path d="M 1123 856 C 1119.0 856.0, 1119.0 856.0, 1115 856" fill="none" stroke="black" /><path d="M 1115 856 C 1114.5 856.5, 1114.5 856.5, 1114 857" fill="none" stroke="black" /><path d="M 1114 857 C 1110.5 857.0, 1110.5 857.0, 1107 857" fill="none" stroke="black" /><path d="M 1107 857 C 1106.5 857.5, 1106.5 857.5, 1106 858" fill="none" stroke="black" /><path d="M 1106 858 C 1102.5 858.0, 1102.5 858.0, 1099 858" fill="none" stroke="black" /><path d="M 1099 858 C 1098.5 858.5, 1098.5 858.5, 1098 859" fill="none" stroke="black" /><path d="M 1098 859 C 1094.0 859.0, 1094.0 859.0, 1090 859" fill="none" stroke="black" /><path d="M 1090 859 C 1089.5 859.5, 1089.5 859.5, 1089 860" fill="none" stroke="black" /><path d="M 1089 860 C 1085.0 860.0, 1085.0 860.0, 1081 860" fill="none" stroke="black" /><path d="M 1081 860 C 1080.5 860.5, 1080.5 860.5, 1080 861" fill="none" stroke="black" /><path d="M 1080 861 C 1076.5 861.0, 1076.5 861.0, 1073 861" fill="none" stroke="black" /><path d="M 1073 861 C 1072.5 861.5, 1072.5 861.5, 1072 862" fill="none" stroke="black" /><path d="M 1072 862 C 1068.0 862.0, 1068.0 862.0, 1064 862" fill="none" stroke="black" /><path d="M 1064 862 C 1063.5 862.5, 1063.5 862.5, 1063 863" fill="none" stroke="black" /><path d="M 1063 863 C 1059.0 863.0, 1059.0 863.0, 1055 863" fill="none" stroke="black" /><path d="M 1055 863 C 1054.5 863.5, 1054.5 863.5, 1054 864" fill="none" stroke="black" /><path d="M 1054 864 C 1050.0 864.0, 1050.0 864.0, 1046 864" fill="none" stroke="black" /><path d="M 1046 864 C 1045.5 864.5, 1045.5 864.5, 1045 865" fill="none" stroke="black" /><path d="M 1045 865 C 1041.0 865.0, 1041.0 865.0, 1037 865" fill="none" stroke="black" /><path d="M 1037 865 C 1036.5 865.5, 1036.5 865.5, 1036 866" fill="none" stroke="black" /><path d="M 1036 866 C 1032.0 866.0, 1032.0 866.0, 1028 866" fill="none" stroke="black" /><path d="M 1028 866 C 1027.5 866.5, 1027.5 866.5, 1027 867" fill="none" stroke="black" /><path d="M 1027 867 C 1023.0 867.0, 1023.0 867.0, 1019 867" fill="none" stroke="black" /><path d="M 1019 867 C 1018.5 867.5, 1018.5 867.5, 1018 868" fill="none" stroke="black" /><path d="M 1018 868 C 1014.0 868.0, 1014.0 868.0, 1010 868" fill="none" stroke="black" /><path d="M 1010 868 C 1009.5 868.5, 1009.5 868.5, 1009 869" fill="none" stroke="black" /><path d="M 1009 869 C 1005.0 869.0, 1005.0 869.0, 1001 869" fill="none" stroke="black" /><path d="M 1001 869 C 1000.5 869.5, 1000.5 869.5, 1000 870" fill="none" stroke="black" /><path d="M 1000 870 C 996.0 870.0, 996.0 870.0, 992 870" fill="none" stroke="black" /><path d="M 992 870 C 991.5 870.5, 991.5 870.5, 991 871" fill="none" stroke="black" /><path d="M 991 871 C 987.0 871.0, 987.0 871.0, 983 871" fill="none" stroke="black" /><path d="M 983 871 C 982.5 871.5, 982.5 871.5, 982 872" fill="none" stroke="black" /><path d="M 982 872 C 977.5 872.0, 977.5 872.0, 973 872" fill="none" stroke="black" /><path d="M 973 872 C 972.5 872.5, 972.5 872.5, 972 873" fill="none" stroke="black" /><path d="M 972 873 C 968.0 873.0, 968.0 873.0, 964 873" fill="none" stroke="black" /><path d="M 964 873 C 963.5 873.5, 963.5 873.5, 963 874" fill="none" stroke="black" /><path d="M 963 874 C 959.5 874.0, 959.5 874.0, 956 874" fill="none" stroke="black" /><path d="M 956 874 C 959.5 874.0, 959.5 874.0, 963 874" fill="none" stroke="black" /><path d="M 963 874 C 963.5 873.5, 963.5 873.5, 964 873" fill="none" stroke="black" /><path d="M 964 873 C 968.0 873.0, 968.0 873.0, 972 873" fill="none" stroke="black" /><path d="M 972 873 C 972.5 872.5, 972.5 872.5, 973 872" fill="none" stroke="black" /><path d="M 973 872 C 977.5 872.0, 977.5 872.0, 982 872" fill="none" stroke="black" /><path d="M 982 872 C 982.5 871.5, 982.5 871.5, 983 871" fill="none" stroke="black" /><path d="M 983 871 C 987.0 871.0, 987.0 871.0, 991 871" fill="none" stroke="black" /><path d="M 991 871 C 991.5 870.5, 991.5 870.5, 992 870" fill="none" stroke="black" /><path d="M 992 870 C 996.0 870.0, 996.0 870.0, 1000 870" fill="none" stroke="black" /><path d="M 1000 870 C 1000.5 869.5, 1000.5 869.5, 1001 869" fill="none" stroke="black" /><path d="M 1001 869 C 1005.0 869.0, 1005.0 869.0, 1009 869" fill="none" stroke="black" /><path d="M 1009 869 C 1009.5 868.5, 1009.5 868.5, 1010 868" fill="none" stroke="black" /><path d="M 1010 868 C 1014.0 868.0, 1014.0 868.0, 1018 868" fill="none" stroke="black" /><path d="M 1018 868 C 1018.5 867.5, 1018.5 867.5, 1019 867" fill="none" stroke="black" /><path d="M 1019 867 C 1023.0 867.0, 1023.0 867.0, 1027 867" fill="none" stroke="black" /><path d="M 1027 867 C 1027.5 866.5, 1027.5 866.5, 1028 866" fill="none" stroke="black" /><path d="M 1028 866 C 1032.0 866.0, 1032.0 866.0, 1036 866" fill="none" stroke="black" /><path d="M 1036 866 C 1036.5 865.5, 1036.5 865.5, 1037 865" fill="none" stroke="black" /><path d="M 1037 865 C 1041.0 865.0, 1041.0 865.0, 1045 865" fill="none" stroke="black" /><path d="M 1045 865 C 1045.5 864.5, 1045.5 864.5, 1046 864" fill="none" stroke="black" /><path d="M 1046 864 C 1050.0 864.0, 1050.0 864.0, 1054 864" fill="none" stroke="black" /><path d="M 1054 864 C 1054.5 863.5, 1054.5 863.5, 1055 863" fill="none" stroke="black" /><path d="M 1055 863 C 1059.0 863.0, 1059.0 863.0, 1063 863" fill="none" stroke="black" /><path d="M 1063 863 C 1063.5 862.5, 1063.5 862.5, 1064 862" fill="none" stroke="black" /><path d="M 1064 862 C 1068.0 862.0, 1068.0 862.0, 1072 862" fill="none" stroke="black" /><path d="M 1072 862 C 1072.5 861.5, 1072.5 861.5, 1073 861" fill="none" stroke="black" /><path d="M 1073 861 C 1076.5 861.0, 1076.5 861.0, 1080 861" fill="none" stroke="black" /><path d="M 1080 861 C 1080.5 860.5, 1080.5 860.5, 1081 860" fill="none" stroke="black" /><path d="M 1081 860 C 1085.0 860.0, 1085.0 860.0, 1089 860" fill="none" stroke="black" /><path d="M 1089 860 C 1089.5 859.5, 1089.5 859.5, 1090 859" fill="none" stroke="black" /><path d="M 1090 859 C 1094.0 859.0, 1094.0 859.0, 1098 859" fill="none" stroke="black" /><path d="M 1098 859 C 1098.5 858.5, 1098.5 858.5, 1099 858" fill="none" stroke="black" /><path d="M 1099 858 C 1102.5 858.0, 1102.5 858.0, 1106 858" fill="none" stroke="black" /><path d="M 1106 858 C 1106.5 857.5, 1106.5 857.5, 1107 857" fill="none" stroke="black" /><path d="M 1107 857 C 1110.5 857.0, 1110.5 857.0, 1114 857" fill="none" stroke="black" /><path d="M 1114 857 C 1114.5 856.5, 1114.5 856.5, 1115 856" fill="none" stroke="black" /><path d="M 1115 856 C 1119.0 856.0, 1119.0 856.0, 1123 856" fill="none" stroke="black" /><path d="M 1123 856 C 1123.5 855.5, 1123.5 855.5, 1124 855" fill="none" stroke="black" /><path d="M 1124 855 C 1127.5 855.0, 1127.5 855.0, 1131 855" fill="none" stroke="black" /><path d="M 1131 855 C 1131.5 854.5, 1131.5 854.5, 1132 854" fill="none" stroke="black" /><path d="M 1132 854 C 1135.5 854.0, 1135.5 854.0, 1139 854" fill="none" stroke="black" /><path d="M 1139 854 C 1139.5 853.5, 1139.5 853.5, 1140 853" fill="none" stroke="black" /><path d="M 1140 853 C 1143.5 853.0, 1143.5 853.0, 1147 853" fill="none" stroke="black" /><path d="M 1147 853 C 1147.5 852.5, 1147.5 852.5, 1148 852" fill="none" stroke="black" /><path d="M 1148 852 C 1151.5 852.0, 1151.5 852.0, 1155 852" fill="none" stroke="black" /><path d="M 1155 852 C 1155.5 851.5, 1155.5 851.5, 1156 851" fill="none" stroke="black" /><path d="M 1156 851 C 1159.0 851.0, 1159.0 851.0, 1162 851" fill="none" stroke="black" /><path d="M 1162 851 C 1162.5 850.5, 1162.5 850.5, 1163 850" fill="none" stroke="black" /><path d="M 1163 850 C 1166.5 850.0, 1166.5 850.0, 1170 850" fill="none" stroke="black" /><path d="M 1170 850 C 1170.5 849.5, 1170.5 849.5, 1171 849" fill="none" stroke="black" /><path d="M 1171 849 C 1174.0 849.0, 1174.0 849.0, 1177 849" fill="none" stroke="black" /><path d="M 1177 849 C 1177.5 848.5, 1177.5 848.5, 1178 848" fill="none" stroke="black" /><path d="M 1178 848 C 1181.0 848.0, 1181.0 848.0, 1184 848" fill="none" stroke="black" /><path d="M 1184 848 C 1184.5 847.5, 1184.5 847.5, 1185 847" fill="none" stroke="black" /><path d="M 1185 847 C 1188.5 847.0, 1188.5 847.0, 1192 847" fill="none" stroke="black" /><path d="M 1192 847 C 1192.5 846.5, 1192.5 846.5, 1193 846" fill="none" stroke="black" /><path d="M 1193 846 C 1196.0 846.0, 1196.0 846.0, 1199 846" fill="none" stroke="black" /><path d="M 1199 846 C 1199.5 845.5, 1199.5 845.5, 1200 845" fill="none" stroke="black" /><path d="M 1200 845 C 1203.0 845.0, 1203.0 845.0, 1206 845" fill="none" stroke="black" /><path d="M 1206 845 C 1206.5 844.5, 1206.5 844.5, 1207 844" fill="none" stroke="black" /><path d="M 1207 844 C 1210.0 844.0, 1210.0 844.0, 1213 844" fill="none" stroke="black" /><path d="M 1213 844 C 1213.5 843.5, 1213.5 843.5, 1214 843" fill="none" stroke="black" /><path d="M 1214 843 C 1216.5 843.0, 1216.5 843.0, 1219 843" fill="none" stroke="black" /><path d="M 1219 843 C 1219.5 842.5, 1219.5 842.5, 1220 842" fill="none" stroke="black" /><path d="M 1220 842 C 1223.0 842.0, 1223.0 842.0, 1226 842" fill="none" stroke="black" /><path d="M 1226 842 C 1226.5 841.5, 1226.5 841.5, 1227 841" fill="none" stroke="black" /><path d="M 1227 841 C 1230.0 841.0, 1230.0 841.0, 1233 841" fill="none" stroke="black" /><path d="M 1233 841 C 1233.5 840.5, 1233.5 840.5, 1234 840" fill="none" stroke="black" /><path d="M 1234 840 C 1236.5 840.0, 1236.5 840.0, 1239 840" fill="none" stroke="black" /><path d="M 1239 840 C 1239.5 839.5, 1239.5 839.5, 1240 839" fill="none" stroke="black" /><path d="M 1240 839 C 1243.0 839.0, 1243.0 839.0, 1246 839" fill="none" stroke="black" /><path d="M 1246 839 C 1246.5 838.5, 1246.5 838.5, 1247 838" fill="none" stroke="black" /><path d="M 1247 838 C 1249.5 838.0, 1249.5 838.0, 1252 838" fill="none" stroke="black" /><path d="M 1252 838 C 1252.5 837.5, 1252.5 837.5, 1253 837" fill="none" stroke="black" /><path d="M 1253 837 C 1255.5 837.0, 1255.5 837.0, 1258 837" fill="none" stroke="black" /><path d="M 1258 837 C 1258.5 836.5, 1258.5 836.5, 1259 836" fill="none" stroke="black" /><path d="M 1259 836 C 1261.5 836.0, 1261.5 836.0, 1264 836" fill="none" stroke="black" /><path d="M 1264 836 C 1264.5 835.5, 1264.5 835.5, 1265 835" fill="none" stroke="black" /><path d="M 1265 835 C 1267.5 835.0, 1267.5 835.0, 1270 835" fill="none" stroke="black" /><path d="M 1270 835 C 1270.5 834.5, 1270.5 834.5, 1271 834" fill="none" stroke="black" /><path d="M 1271 834 C 1274.0 834.0, 1274.0 834.0, 1277 834" fill="none" stroke="black" /><path d="M 1277 834 C 1277.5 833.5, 1277.5 833.5, 1278 833" fill="none" stroke="black" /><path d="M 1278 833 C 1280.0 833.0, 1280.0 833.0, 1282 833" fill="none" stroke="black" /><path d="M 1282 833 C 1282.5 832.5, 1282.5 832.5, 1283 832" fill="none" stroke="black" /><path d="M 1283 832 C 1285.5 832.0, 1285.5 832.0, 1288 832" fill="none" stroke="black" /><path d="M 1288 832 C 1288.5 831.5, 1288.5 831.5, 1289 831" fill="none" stroke="black" /><path d="M 1289 831 C 1291.5 831.0, 1291.5 831.0, 1294 831" fill="none" stroke="black" /><path d="M 1294 831 C 1294.5 830.5, 1294.5 830.5, 1295 830" fill="none" stroke="black" /><path d="M 1295 830 C 1297.5 830.0, 1297.5 830.0, 1300 830" fill="none" stroke="black" /><path d="M 1300 830 C 1300.5 829.5, 1300.5 829.5, 1301 829" fill="none" stroke="black" /><path d="M 1301 829 C 1303.0 829.0, 1303.0 829.0, 1305 829" fill="none" stroke="black" /><path d="M 1305 829 C 1305.5 828.5, 1305.5 828.5, 1306 828" fill="none" stroke="black" /><path d="M 1306 828 C 1308.5 828.0, 1308.5 828.0, 1311 828" fill="none" stroke="black" /><path d="M 1311 828 C 1311.5 827.5, 1311.5 827.5, 1312 827" fill="none" stroke="black" /><path d="M 1312 827 C 1314.0 827.0, 1314.0 827.0, 1316 827" fill="none" stroke="black" /><path d="M 1316 827 C 1316.5 826.5, 1316.5 826.5, 1317 826" fill="none" stroke="black" /><path d="M 1317 826 C 1319.5 826.0, 1319.5 826.0, 1322 826" fill="none" stroke="black" /><path d="M 1322 826 C 1322.5 825.5, 1322.5 825.5, 1323 825" fill="none" stroke="black" /><path d="M 1323 825 C 1325.0 825.0, 1325.0 825.0, 1327 825" fill="none" stroke="black" /><path d="M 1327 825 C 1327.5 824.5, 1327.5 824.5, 1328 824" fill="none" stroke="black" /><path d="M 1328 824 C 1330.0 824.0, 1330.0 824.0, 1332 824" fill="none" stroke="black" /><path d="M 1332 824 C 1332.5 823.5, 1332.5 823.5, 1333 823" fill="none" stroke="black" /><path d="M 1333 823 C 1335.0 823.0, 1335.0 823.0, 1337 823" fill="none" stroke="black" /><path d="M 1337 823 C 1337.5 822.5, 1337.5 822.5, 1338 822" fill="none" stroke="black" /><path d="M 1338 822 C 1340.0 822.0, 1340.0 822.0, 1342 822" fill="none" stroke="black" /><path d="M 1342 822 C 1342.5 821.5, 1342.5 821.5, 1343 821" fill="none" stroke="black" /><path d="M 1343 821 C 1345.5 821.0, 1345.5 821.0, 1348 821" fill="none" stroke="black" /><path d="M 1348 821 C 1348.5 820.5, 1348.5 820.5, 1349 820" fill="none" stroke="black" /><path d="M 1349 820 C 1351.0 820.0, 1351.0 820.0, 1353 820" fill="none" stroke="black" /><path d="M 1353 820 C 1353.5 819.5, 1353.5 819.5, 1354 819" fill="none" stroke="black" /><path d="M 1354 819 C 1355.5 819.0, 1355.5 819.0, 1357 819" fill="none" stroke="black" /><path d="M 1357 819 C 1357.5 818.5, 1357.5 818.5, 1358 818" fill="none" stroke="black" /><path d="M 1358 818 C 1360.0 818.0, 1360.0 818.0, 1362 818" fill="none" stroke="black" /><path d="M 1362 818 C 1362.5 817.5, 1362.5 817.5, 1363 817" fill="none" stroke="black" /><path d="M 1363 817 C 1365.0 817.0, 1365.0 817.0, 1367 817" fill="none" stroke="black" /><path d="M 1367 817 C 1367.5 816.5, 1367.5 816.5, 1368 816" fill="none" stroke="black" /><path d="M 1368 816 C 1370.0 816.0, 1370.0 816.0, 1372 816" fill="none" stroke="black" /><path d="M 1372 816 C 1372.5 815.5, 1372.5 815.5, 1373 815" fill="none" stroke="black" /><path d="M 1373 815 C 1374.0 815.0, 1374.0 815.0, 1375 815" fill="none" stroke="black" /><path d="M 1375 815 C 1376.0 814.0, 1376.0 814.0, 1377 813" fill="none" stroke="black" /><path d="M 1377 813 C 1377.0 811.0, 1377.0 811.0, 1377 809" fill="none" stroke="black" /><path d="M 1377 809 C 1377.5 808.5, 1377.5 808.5, 1378 808" fill="none" stroke="black" /><path d="M 1378 808 C 1378.0 797.5, 1378.0 797.5, 1378 787" fill="none" stroke="black" /><path d="M 1378 787 C 1378.5 786.5, 1378.5 786.5, 1379 786" fill="none" stroke="black" /><path d="M 1379 786 C 1379.0 775.5, 1379.0 775.5, 1379 765" fill="none" stroke="black" /><path d="M 1379 765 C 1379.5 764.5, 1379.5 764.5, 1380 764" fill="none" stroke="black" /><path d="M 1380 764 C 1380.0 753.0, 1380.0 753.0, 1380 742" fill="none" stroke="black" /><path d="M 1380 742 C 1380.5 741.5, 1380.5 741.5, 1381 741" fill="none" stroke="black" /><path d="M 1381 741 C 1381.0 730.0, 1381.0 730.0, 1381 719" fill="none" stroke="black" /><path d="M 1381 719 C 1381.5 718.5, 1381.5 718.5, 1382 718" fill="none" stroke="black" /><path d="M 1382 718 C 1382.0 706.5, 1382.0 706.5, 1382 695" fill="none" stroke="black" /><path d="M 1382 695 C 1382.5 694.5, 1382.5 694.5, 1383 694" fill="none" stroke="black" /><path d="M 1383 694 C 1383.0 682.5, 1383.0 682.5, 1383 671" fill="none" stroke="black" /><path d="M 1383 671 C 1383.5 670.5, 1383.5 670.5, 1384 670" fill="none" stroke="black" /><path d="M 1384 670 C 1384.0 657.0, 1384.0 657.0, 1384 644" fill="none" stroke="black" /><path d="M 1384 644 C 1384.5 643.5, 1384.5 643.5, 1385 643" fill="none" stroke="black" /><path d="M 1385 643 C 1385.0 628.5, 1385.0 628.5, 1385 614" fill="none" stroke="black" /><path d="M 1385 614 C 1385.5 613.5, 1385.5 613.5, 1386 613" fill="none" stroke="black" /><path d="M 1386 613 C 1386.0 596.0, 1386.0 596.0, 1386 579" fill="none" stroke="black" /><path d="M 1386 579 C 1386.5 578.5, 1386.5 578.5, 1387 578" fill="none" stroke="black" /><path d="M 1387 578 C 1387.0 554.0, 1387.0 554.0, 1387 530" fill="none" stroke="black" /><path d="M 1387 530 C 1387.5 529.5, 1387.5 529.5, 1388 529" fill="none" stroke="black" /><path d="M 1388 529 C 1388.0 466.0, 1388.0 466.0, 1388 403" fill="none" stroke="black" /><path d="M 1388 403 C 1387.5 402.5, 1387.5 402.5, 1387 402" fill="none" stroke="black" /><path d="M 1387 402 C 1387.0 383.0, 1387.0 383.0, 1387 364" fill="none" stroke="black" /><path d="M 1387 364 C 1386.5 363.5, 1386.5 363.5, 1386 363" fill="none" stroke="black" /><path d="M 1386 363 C 1386.0 350.0, 1386.0 350.0, 1386 337" fill="none" stroke="black" /><path d="M 1386 337 C 1385.5 336.5, 1385.5 336.5, 1385 336" fill="none" stroke="black" /><path d="M 1385 336 C 1385.0 325.5, 1385.0 325.5, 1385 315" fill="none" stroke="black" /><path d="M 1385 315 C 1384.5 314.5, 1384.5 314.5, 1384 314" fill="none" stroke="black" /><path d="M 1384 314 C 1384.0 304.5, 1384.0 304.5, 1384 295" fill="none" stroke="black" /><path d="M 1384 295 C 1383.5 294.5, 1383.5 294.5, 1383 294" fill="none" stroke="black" /><path d="M 1383 294 C 1383.0 287.0, 1383.0 287.0, 1383 280" fill="none" stroke="black" /><path d="M 1383 280 C 1382.5 279.5, 1382.5 279.5, 1382 279" fill="none" stroke="black" /><path d="M 1382 279 C 1382.0 272.0, 1382.0 272.0, 1382 265" fill="none" stroke="black" /><path d="M 1382 265 C 1381.5 264.5, 1381.5 264.5, 1381 264" fill="none" stroke="black" /><path d="M 1381 264 C 1381.0 256.5, 1381.0 256.5, 1381 249" fill="none" stroke="black" /><path d="M 1381 249 C 1380.5 248.5, 1380.5 248.5, 1380 248" fill="none" stroke="black" /><path d="M 1380 248 C 1380.0 243.0, 1380.0 243.0, 1380 238" fill="none" stroke="black" /><path d="M 1380 238 C 1379.5 237.5, 1379.5 237.5, 1379 237" fill="none" stroke="black" /><path d="M 1379 237 C 1379.0 232.0, 1379.0 232.0, 1379 227" fill="none" stroke="black" /><path d="M 1379 227 C 1378.5 226.5, 1378.5 226.5, 1378 226" fill="none" stroke="black" /><path d="M 1378 226 C 1378.0 220.5, 1378.0 220.5, 1378 215" fill="none" stroke="black" /><path d="M 1378 215 C 1377.5 214.5, 1377.5 214.5, 1377 214" fill="none" stroke="black" /><path d="M 1377 214 C 1377.0 209.0, 1377.0 209.0, 1377 204" fill="none" stroke="black" /><path d="M 1377 204 C 1376.5 203.5, 1376.5 203.5, 1376 203" fill="none" stroke="black" /><path d="M 1376 203 C 1376.0 198.5, 1376.0 198.5, 1376 194" fill="none" stroke="black" /><path d="M 1376 194 C 1375.5 193.5, 1375.5 193.5, 1375 193" fill="none" stroke="black" /><path d="M 1375 193 C 1375.0 189.0, 1375.0 189.0, 1375 185" fill="none" stroke="black" /><path d="M 1375 185 C 1374.5 184.5, 1374.5 184.5, 1374 184" fill="none" stroke="black" /><path d="M 1374 184 C 1374.0 180.0, 1374.0 180.0, 1374 176" fill="none" stroke="black" /><path d="M 1374 176 C 1373.5 175.5, 1373.5 175.5, 1373 175" fill="none" stroke="black" /><path d="M 1373 175 C 1373.0 171.0, 1373.0 171.0, 1373 167" fill="none" stroke="black" /><path d="M 1373 167 C 1372.5 166.5, 1372.5 166.5, 1372 166" fill="none" stroke="black" /><path d="M 1372 166 C 1372.0 162.0, 1372.0 162.0, 1372 158" fill="none" stroke="black" /><path d="M 1372 158 C 1371.5 157.5, 1371.5 157.5, 1371 157" fill="none" stroke="black" /><path d="M 1371 157 C 1371.0 153.0, 1371.0 153.0, 1371 149" fill="none" stroke="black" /><path d="M 1371 149 C 1370.5 148.5, 1370.5 148.5, 1370 148" fill="none" stroke="black" /><path d="M 1370 148 C 1370.0 144.5, 1370.0 144.5, 1370 141" fill="none" stroke="black" /><path d="M 1370 141 C 1369.5 140.5, 1369.5 140.5, 1369 140" fill="none" stroke="black" /><path d="M 1369 140 C 1369.0 137.0, 1369.0 137.0, 1369 134" fill="none" stroke="black" /><path d="M 1369 134 C 1368.5 133.5, 1368.5 133.5, 1368 133" fill="none" stroke="black" /><path d="M 1368 133 C 1368.0 130.0, 1368.0 130.0, 1368 127" fill="none" stroke="black" /><path d="M 1368 127 C 1367.5 126.5, 1367.5 126.5, 1367 126" fill="none" stroke="black" /><path d="M 1367 126 C 1367.0 122.5, 1367.0 122.5, 1367 119" fill="none" stroke="black" /><path d="M 1367 119 C 1366.5 118.5, 1366.5 118.5, 1366 118" fill="none" stroke="black" /><path d="M 1366 118 C 1366.0 115.0, 1366.0 115.0, 1366 112" fill="none" stroke="black" /><path d="M 1366 112 C 1365.5 111.5, 1365.5 111.5, 1365 111" fill="none" stroke="black" /><path d="M 1365 111 C 1365.0 108.0, 1365.0 108.0, 1365 105" fill="none" stroke="black" /><path d="M 1365 105 C 1364.5 104.5, 1364.5 104.5, 1364 104" fill="none" stroke="black" /><path d="M 1364 104 C 1364.0 101.0, 1364.0 101.0, 1364 98" fill="none" stroke="black" /><path d="M 1364 98 C 1363.5 97.5, 1363.5 97.5, 1363 97" fill="none" stroke="black" /><path d="M 1363 97 C 1363.0 94.5, 1363.0 94.5, 1363 92" fill="none" stroke="black" /><path d="M 1363 92 C 1362.5 91.5, 1362.5 91.5, 1362 91" fill="none" stroke="black" /><path d="M 1362 91 C 1362.0 88.5, 1362.0 88.5, 1362 86" fill="none" stroke="black" /><path d="M 1362 86 C 1361.5 85.5, 1361.5 85.5, 1361 85" fill="none" stroke="black" /><path d="M 1361 85 C 1361.0 82.5, 1361.0 82.5, 1361 80" fill="none" stroke="black" /><path d="M 1361 80 C 1360.5 79.5, 1360.5 79.5, 1360 79" fill="none" stroke="black" /><path d="M 1360 79 C 1360.0 76.0, 1360.0 76.0, 1360 73" fill="none" stroke="black" /><path d="M 1360 73 C 1359.5 72.5, 1359.5 72.5, 1359 72" fill="none" stroke="black" /><path d="M 1359 72 C 1359.0 69.5, 1359.0 69.5, 1359 67" fill="none" stroke="black" /><path d="M 1359 67 C 1358.5 66.5, 1358.5 66.5, 1358 66" fill="none" stroke="black" /><path d="M 1358 66 C 1358.0 63.5, 1358.0 63.5, 1358 61" fill="none" stroke="black" /><path d="M 1358 61 C 1357.5 60.5, 1357.5 60.5, 1357 60" fill="none" stroke="black" /><path d="M 1357 60 C 1357.0 57.5, 1357.0 57.5, 1357 55" fill="none" stroke="black" /><path d="M 1357 55 C 1356.5 54.5, 1356.5 54.5, 1356 54" fill="none" stroke="black" /><path d="M 1356 54 C 1356.0 52.0, 1356.0 52.0, 1356 50" fill="none" stroke="black" /><path d="M 1356 50 C 1355.5 49.5, 1355.5 49.5, 1355 49" fill="none" stroke="black" /><path d="M 1355 49 C 1355.0 46.5, 1355.0 46.5, 1355 44" fill="none" stroke="black" /><path d="M 1355 44 C 1354.5 43.5, 1354.5 43.5, 1354 43" fill="none" stroke="black" /><path d="M 1354 43 C 1354.0 41.0, 1354.0 41.0, 1354 39" fill="none" stroke="black" /><path d="M 1354 39 C 1353.5 38.5, 1353.5 38.5, 1353 38" fill="none" stroke="black" /><path d="M 1353 38 C 1353.0 36.0, 1353.0 36.0, 1353 34" fill="none" stroke="black" /><path d="M 1353 34 C 1352.5 33.5, 1352.5 33.5, 1352 33" fill="none" stroke="black" /><path d="M 1352 33 C 1352.0 31.0, 1352.0 31.0, 1352 29" fill="none" stroke="black" /><path d="M 1352 29 C 1351.5 28.5, 1351.5 28.5, 1351 28" fill="none" stroke="black" /><path d="M 1351 28 C 1351.0 26.0, 1351.0 26.0, 1351 24" fill="none" stroke="black" /><path d="M 1351 24 C 1350.5 23.5, 1350.5 23.5, 1350 23" fill="none" stroke="black" /><path d="M 1350 23 C 1350.0 20.5, 1350.0 20.5, 1350 18" fill="none" stroke="black" /><path d="M 1350 18 C 1349.5 17.5, 1349.5 17.5, 1349 17" fill="none" stroke="black" /><path d="M 1349 17 C 1349.0 15.0, 1349.0 15.0, 1349 13" fill="none" stroke="black" /><path d="M 1349 13 C 1348.5 12.5, 1348.5 12.5, 1348 12" fill="none" stroke="black" /><path d="M 1348 12 C 1348.0 10.5, 1348.0 10.5, 1348 9" fill="none" stroke="black" /><path d="M 1348 9 C 1347.5 8.5, 1347.5 8.5, 1347 8" fill="none" stroke="black" /><path d="M 1347 8 C 1347.0 7.0, 1347.0 7.0, 1347 6" fill="none" stroke="black" /><path d="M 1347 6 C 1346.5 6.0, 1346.5 6.0, 1346 6" fill="none" stroke="black" /><path d="M 1346 6 C 1345.5 5.5, 1345.5 5.5, 1345 5" fill="none" stroke="black" /><path d="M 1345 5 C 1187.5 5.0, 1187.5 5.0, 1030 5" fill="none" stroke="black" /><path d="M 1030 5 C 1029.5 4.5, 1029.5 4.5, 1029 4" fill="none" stroke="black" /><path d="M 1029 4 C 784.5 4.0, 784.5 4.0, 540 4" fill="none" stroke="black" /><path d="M 540 4 C 539.5 3.5, 539.5 3.5, 539 3" fill="none" stroke="black" /><path d="M 539 3 C 539.5 2.5, 539.5 2.5, 540 2" fill="none" stroke="black" /><path d="M 540 2 C 784.0 2.0, 784.0 2.0, 1028 2" fill="none" stroke="black" /><path d="M 1028 2 C 784.0 2.0, 784.0 2.0, 540 2" fill="none" stroke="black" /><path d="M 540 2 C 539.5 2.5, 539.5 2.5, 539 3" fill="none" stroke="black" /><path d="M 539 3 C 537.0 3.0, 537.0 3.0, 535 3" fill="none" stroke="black" /><path d="M 535 3 C 534.5 2.5, 534.5 2.5, 534 2" fill="none" stroke="black" /></svg>