<?xml version="1.0" encoding="utf-8" ?>
<svg baseProfile="tiny" height="100%" version="1.2" width="100%" xmlns="http://www.w3.org/2000/svg" xmlns:ev="http://www.w3.org/2001/xml-events" xmlns:xlink="http://www.w3.org/1999/xlink"><defs /><path d="M 0 879 C 463.0 879.0, 463.0 879.0, 926 879" fill="none" stroke="black" /><path d="M 926 879 C 926.5 879.5, 926.5 879.5, 927 880" fill="none" stroke="black" /><path d="M 927 880 C 938.0 880.0, 938.0 880.0, 949 880" fill="none" stroke="black" /><path d="M 949 880 C 949.5 879.5, 949.5 879.5, 950 879" fill="none" stroke="black" /><path d="M 950 879 C 957.5 879.0, 957.5 879.0, 965 879" fill="none" stroke="black" /><path d="M 965 879 C 965.5 879.5, 965.5 879.5, 966 880" fill="none" stroke="black" /><path d="M 966 880 C 977.0 880.0, 977.0 880.0, 988 880" fill="none" stroke="black" /><path d="M 988 880 C 988.5 879.5, 988.5 879.5, 989 879" fill="none" stroke="black" /><path d="M 989 879 C 1438.5 879.0, 1438.5 879.0, 1888 879" fill="none" stroke="black" /><path d="M 1888 879 C 1438.5 879.0, 1438.5 879.0, 989 879" fill="none" stroke="black" /><path d="M 989 879 C 988.5 879.5, 988.5 879.5, 988 880" fill="none" stroke="black" /><path d="M 988 880 C 977.0 880.0, 977.0 880.0, 966 880" fill="none" stroke="black" /><path d="M 966 880 C 965.5 879.5, 965.5 879.5, 965 879" fill="none" stroke="black" /><path d="M 965 879 C 957.5 879.0, 957.5 879.0, 950 879" fill="none" stroke="black" /><path d="M 950 879 C 949.5 879.5, 949.5 879.5, 949 880" fill="none" stroke="black" /><path d="M 949 880 C 938.0 880.0, 938.0 880.0, 927 880" fill="none" stroke="black" /><path d="M 927 880 C 926.5 879.5, 926.5 879.5, 926 879" fill="none" stroke="black" /></svg>